# xmcd
#
# Track frame offsets: 
#        150
#        22968
#        47517
#        64263
#        87753
#        105678
#        120732
#        147873
#        168501
#        185784
#        202206
#        222585
#        240087
#        261837
#        277785
#        296088
#
# Disc length: 4301 seconds
#
# Revision: 0
# Processed by: cddbd v1.5.2PL0 Copyright (c) Steve Scherf et al.
# Submitted via: ExactAudioCopy v0.99pb4
#
DISCID=ef10cb10
DTITLE=Bajo Fondo - Mar Dulce
DYEAR=1900
DGENRE=Other
TTITLE0=Grand Guignol
TTITLE1=Cristal
TTITLE2=Ya no duele
TTITLE3=Hoy
TTITLE4=Pa' bailar
TTITLE5=Pulmón
TTITLE6=Fairly right
TTITLE7=El mareo
TTITLE8=El andén
TTITLE9=Infiltrado
TTITLE10=Borges y Paraguay
TTITLE11=Tuve sol
TTITLE12=No pregunto cuantos son
TTITLE13=Slippery sidewalks
TTITLE14=Zitarrosa
TTITLE15=Chiquilineos
EXTD=
EXTT0=
EXTT1=
EXTT2=
EXTT3=
EXTT4=
EXTT5=
EXTT6=
EXTT7=
EXTT8=
EXTT9=
EXTT10=
EXTT11=
EXTT12=
EXTT13=
EXTT14=
EXTT15=
PLAYORDER=
